<?xml version="1.0" encoding="UTF-8"?>
<!-- Created with Inkscape (http://www.inkscape.org/) -->
<svg width="384" height="412" version="1.1" viewBox="0 0 384 412" xmlns="http://www.w3.org/2000/svg" xmlns:cc="http://creativecommons.org/ns#" xmlns:dc="http://purl.org/dc/elements/1.1/" xmlns:rdf="http://www.w3.org/1999/02/22-rdf-syntax-ns#">
 <metadata>
  <rdf:RDF>
   <cc:Work rdf:about="">
    <dc:format>image/svg+xml</dc:format>
    <dc:type rdf:resource="http://purl.org/dc/dcmitype/StillImage"/>
    <dc:title/>
   </cc:Work>
  </rdf:RDF>
 </metadata>
 <g transform="translate(207.5 20.089)">
  <path d="m-31.824 377.1c-16.576-2.2121-34.608-4.4948-78.271-9.909-30.28-3.7546-33.903-4.0016-58.725-4.0016h-26.454l0.56638-3.25c0.31151-1.7875 1.3933-7.525 2.4041-12.75 1.7171-8.8767 3.2166-16.888 8.0485-43 1.0686-5.775 2.8376-15.225 3.931-21s2.8988-15.45 4.012-21.5c1.1132-6.05 2.8817-15.5 3.93-21 1.8717-9.82 4.2722-22.669 8.1269-43.5 1.0686-5.775 2.8448-15.225 3.947-21 1.1022-5.775 3.7995-20.175 5.9938-32s4.8755-26.225 5.9579-32c1.0825-5.775 2.918-15.675 4.0789-22 1.1609-6.325 2.9416-15.775 3.9571-21 1.7536-9.0228 3.6821-19.306 8.0641-43 4.0484-21.89 5.2237-27.523 5.9006-28.283 0.38379-0.43074 1.4265 0.91926 2.317 3 0.8906 2.0807 3.721 8.7332 6.2898 14.783 2.5688 6.05 5.4583 12.8 6.4211 15s4.3448 10.075 7.5156 17.5c3.1707 7.425 8.5806 20.025 12.022 28s17.142 39.925 30.447 71c13.304 31.075 24.794 57.85 25.532 59.5s5.9344 13.8 11.547 27 10.515 24.348 10.896 24.774c0.63988 0.71525 4.6376-8.1445 26.294-58.274 4.3958-10.175 11.704-27.05 16.24-37.5s11.646-26.875 15.8-36.5c4.1538-9.625 11.443-26.5 16.198-37.5 4.7549-11 12.046-27.875 16.203-37.5 4.1564-9.625 10.622-24.475 14.368-33 3.7458-8.525 7.303-16.8 7.9048-18.389 0.60184-1.5888 1.3536-2.6293 1.6706-2.3124 0.62722 0.62722 2.8682 11.647 4.3115 21.201 0.49853 3.3 3.2147 19.5 6.0359 36s5.7855 34.275 6.5874 39.5c0.80188 5.225 1.6674 10.175 1.9234 11 0.256 0.825 0.89165 4.425 1.4126 8s3.2554 20 6.0766 36.5 5.7855 34.275 6.5874 39.5c0.80188 5.225 1.6674 10.175 1.9234 11 0.256 0.825 0.89747 4.425 1.4255 8 0.52803 3.575 3.2658 20 6.084 36.5s5.5489 32.925 6.0684 36.5 1.3991 8.75 1.9547 11.5c0.55559 2.75 1.6389 9.05 2.4073 14 1.2624 8.1319 7.7825 46.999 9.0168 53.75l0.50278 2.75h-26.943c-20.948 0-30.232 0.43252-41.725 1.9441-8.1302 1.0692-22.32 2.8692-31.532 4-31.869 3.9116-49.315 6.0887-64.655 8.0682-8.4725 1.0933-15.673 1.938-16 1.8772-0.3275-0.0608-6.8954-0.95129-14.595-1.9788z" fill="#a1a1a1"/>
  <path d="m-26.824 377.21c-3.3-0.45578-10.05-1.298-15-1.8715-8.7385-1.0125-25.93-3.137-41.75-5.1594-55.833-7.1375-54.087-6.9907-83.143-6.9907-26.415 0-27.607-0.0817-27.607-1.8919 0-1.0406 0.8604-6.3281 1.912-11.75s2.8672-15.033 4.0347-21.358 2.523-13.525 3.0124-16 1.3687-7.2 1.9542-10.5c0.58552-3.3 1.9353-10.5 2.9996-16 1.9574-10.116 4.5317-23.94 8.1934-44 1.1044-6.05 2.4166-13.025 2.9162-15.5s1.8495-9.675 3-16 2.5005-13.525 3-16 1.8646-9.675 3.0335-16c1.1689-6.325 2.9666-16 3.9949-21.5 6.6048-35.326 8.2502-44.167 10.05-54 1.1074-6.05 2.4221-13.025 2.9217-15.5 0.49954-2.475 1.8646-9.675 3.0335-16 2.6273-14.217 4.9787-26.797 8.8783-47.5 1.6576-8.8 3.3096-17.922 3.6712-20.272 0.8619-5.6011 1.7057-5.9313 3.6562-1.4308 0.88264 2.0366 3.9167 9.1029 6.7423 15.703 4.4842 10.474 98.788 230.24 102.77 239.5l1.5057 3.5 2.9472-6.5c2.9434-6.4916 16.819-38.485 27.758-64 3.1831-7.425 7.6971-17.775 10.031-23 2.3341-5.225 5.9336-13.55 7.9989-18.5s8.3526-19.575 13.972-32.5 12.143-28 14.497-33.5c10.864-25.378 17.663-41.166 18.517-43 1.0171-2.1837 10.934-24.983 15.532-35.711 1.5823-3.6911 3.0058-6.5822 3.1634-6.4246 0.25236 0.25236 5.9146 32.731 8.3046 47.636 0.48508 3.025 4.3022 25.75 8.4825 50.5 12.364 73.199 26.564 157.59 27.513 163.5 0.48549 3.025 4.5096 27.05 8.9426 53.39 4.4329 26.339 8.0598 48.502 8.0598 49.25 0 1.1141-5.0215 1.3617-27.75 1.3683-18.511 5e-3 -31.412 0.49186-38.75 1.4612-6.05 0.79921-14.825 1.9075-19.5 2.4629s-12.325 1.4891-17 2.0749c-4.675 0.5858-12.1 1.4746-16.5 1.975-12.583 1.4312-32.38 3.9236-39.5 4.973-10.14 1.4945-23.914 1.9762-30.5 1.0666z" fill="#606060"/>
  <path d="m-25.324 377.11c-3.025-0.4523-9.775-1.2956-15-1.874s-14.45-1.7107-20.5-2.5162-18.425-2.3718-27.5-3.4808c-9.075-1.1089-25.633-3.1505-36.795-4.5367-16.684-2.072-24.647-2.5205-44.75-2.5205-13.45 0-24.455-0.30097-24.455-0.66882s1.8061-10.155 4.0136-21.75 4.8914-25.806 5.9642-31.581 3.7275-19.95 5.8992-31.5c2.1717-11.55 5.3515-28.65 7.0661-38 1.7146-9.35 3.5382-19.025 4.0524-21.5 0.51426-2.475 1.8502-9.45 2.9687-15.5 1.1185-6.05 3.6315-19.55 5.5844-30s5.1084-27.55 7.0122-38 3.8909-21.025 4.4156-23.5c0.52474-2.475 1.8692-9.45 2.9878-15.5 1.1185-6.05 3.5918-19.325 5.4961-29.5 1.9043-10.175 3.7044-19.85 4.0002-21.5 3.6552-20.391 7.7577-41.391 8.3853-42.923 0.76763-1.8737 4.218 5.5811 21.718 46.923 5.3583 12.659 14.123 33.075 15.884 37 0.74039 1.65 3.4542 7.95 6.0308 14 2.5766 6.05 5.2737 12.35 5.9937 14 1.1856 2.7172 5.5518 12.872 9.1369 21.25 0.76488 1.7875 2.0194 4.7125 2.7877 6.5 0.76838 1.7875 3.5051 8.2 6.0817 14.25s5.2737 12.35 5.9937 14c1.3395 3.0698 6.5632 15.226 9.2389 21.5 0.82096 1.925 1.8966 4.4 2.3902 5.5s6.9333 16.098 14.31 33.329 13.598 31.514 13.824 31.74c0.2262 0.22619 1.9202-3.0718 3.7646-7.329s4.344-9.9902 5.5548-12.74c1.2108-2.75 5.0002-11.525 8.4207-19.5s6.8179-15.85 7.5497-17.5 5.0138-11.55 9.5155-22c9.8098-22.772 25.301-58.617 32.195-74.5 5.7406-13.224 5.4972-12.661 14.044-32.5 3.5542-8.25 10.749-24.9 15.989-37 5.2399-12.1 11.252-26.05 13.361-31l3.834-9 1.7207 9c0.94637 4.95 2.1625 11.925 2.7025 15.5 1.4313 9.4762 3.983 24.742 5.0981 30.5 0.53254 2.75 3.4304 19.85 6.4396 38 3.0093 18.15 8.6799 51.9 12.601 75 3.9215 23.1 7.5308 44.7 8.0207 48s1.3681 8.475 1.9518 11.5 1.4722 8.2 1.9746 11.5c0.98061 6.441 16.893 101.14 19.472 115.88 0.85446 4.8845 1.5536 9.006 1.5536 9.1589s-12.938 0.47329-28.75 0.71214c-26.407 0.39887-31.358 0.7712-60.75 4.5689-53.82 6.9538-88.597 11.185-90.852 11.054-1.1813-0.0686-4.6228-0.49482-7.6478-0.94712z" fill="#282828"/>
  <path d="m-23.824 377.11c-2.75-0.46493-9.275-1.3087-14.5-1.8751s-14.675-1.6944-21-2.5068c-19.943-2.5616-43.169-5.4439-52.5-6.515-4.95-0.56824-11.475-1.5059-14.5-2.0836-3.025-0.57775-19.562-1.3048-36.75-1.6156s-31.25-0.72308-31.25-0.91609 0.86123-4.5261 1.9138-9.6291 2.8833-14.678 4.0682-21.278c1.1849-6.6 2.9882-16.275 4.0074-21.5 1.0192-5.225 2.803-14.675 3.9639-21 3.7923-20.661 6.1648-33.337 8.0483-43 1.0185-5.225 2.8177-14.9 3.9984-21.5s2.9799-16.275 3.9984-21.5 2.7628-14.45 3.8762-20.5c4.8582-26.397 6.3859-34.565 8.1361-43.5 1.0234-5.225 3.0404-16.025 4.4821-24 1.4417-7.975 3.2324-17.65 3.9794-21.5 1.3602-7.0107 3.5992-18.97 7.5822-40.5 4.1728-22.556 6.0934-32.644 8.1755-42.94 2.0412-10.095 2.1544-10.343 3.4194-7.5 1.8078 4.063 17.632 40.856 22.554 52.44 2.2201 5.225 4.6241 10.85 5.3423 12.5 1.5837 3.6383 12.917 30.037 19.104 44.5 2.4706 5.775 4.8845 11.4 5.3644 12.5 0.81634 1.8715 8.2473 19.217 18.636 43.5 2.4706 5.775 4.8841 11.4 5.3634 12.5 0.47931 1.1 3.8561 8.975 7.504 17.5s7.2246 16.85 7.9482 18.5c0.72363 1.65 2.7413 6.375 4.4838 10.5 1.7424 4.125 3.5597 8.4 4.0383 9.5s3.0031 6.95 5.61 13c2.6069 6.05 5.1035 11.417 5.5481 11.927 0.45186 0.51826 1.5079-0.8046 2.3949-3 0.87266-2.1599 2.3993-5.727 3.3925-7.927s2.1219-5.019 2.5083-6.2645c0.3947-1.2724 1.1767-1.9714 1.785-1.5955 0.61401 0.37947 0.79664 0.20647 0.42199-0.39973-0.94498-1.529 7.3506-20.359 8.6228-19.573 0.61995 0.38316 0.73528 0.15194 0.28644-0.5743-0.78243-1.266-0.47821-2.0626 10.156-26.593 3.5764-8.25 7.0814-16.35 7.789-18s4.1951-9.75 7.7501-18c3.555-8.25 8.9795-20.85 12.054-28 3.0749-7.15 9.7095-22.45 14.744-34 5.0341-11.55 10.852-25.05 12.928-30 2.0762-4.95 8.5844-20.025 14.463-33.5 5.8783-13.475 11.643-26.921 12.811-29.879l2.1236-5.379 2.2704 12.879c1.2487 7.0834 2.7869 15.804 3.4181 19.379 0.63123 3.575 1.7518 10.325 2.4901 15 0.73831 4.675 4.3268 26.05 7.9745 47.5 3.6477 21.45 7.2361 42.825 7.9742 47.5 1.577 9.9878 4.0021 24.278 6.0246 35.5 0.79299 4.4 1.8843 10.925 2.425 14.5s2.1407 13.25 3.5553 21.5c1.4146 8.25 3.1941 18.825 3.9544 23.5 2.7264 16.764 4.5712 27.63 6.0271 35.5 0.81398 4.4 1.906 10.925 2.4266 14.5 0.52068 3.575 2.1274 13.25 3.5704 21.5 2.944 16.831 5.9906 35.04 7.8634 47l1.2528 8-30.052 0.63307c-16.528 0.34819-33.202 1.1509-37.052 1.7839-6.4576 1.0616-21.53 2.9621-52 6.5567-25.659 3.027-38.404 4.6164-48.5 6.0485-11.459 1.6253-11.261 1.6211-18.5 0.39727zm9.1831-2.1069c-0.31922-0.79773-0.55618-0.56078-0.60416 0.60417-0.0434 1.0542 0.19292 1.6448 0.52522 1.3125 0.33229-0.33229 0.36781-1.1948 0.0789-1.9167zm4.0461 0.58333c-0.3323-0.33229-1.1948-0.36781-1.9167-0.0789-0.79773 0.31922-0.56078 0.55618 0.60417 0.60416 1.0542 0.0434 1.6448-0.19293 1.3125-0.52522zm-4.0461-7.5833c-0.31922-0.79773-0.55618-0.56078-0.60416 0.60417-0.0434 1.0542 0.19292 1.6448 0.52522 1.3125 0.33229-0.33229 0.36781-1.1948 0.0789-1.9167zm0.97917-34.062c-0.27741-0.6875-0.50439-0.125-0.50439 1.25s0.22698 1.9375 0.50439 1.25 0.27741-1.8125 0-2.5zm3.8788-71.817c1.0261-1.6602 0.10511-1.8904-1.3306-0.33261-0.70918 0.76953-0.84824 1.3991-0.30901 1.3991 0.53922 0 1.277-0.47994 1.6396-1.0665zm5.0609-11.091c-0.8811-1.2579-1.602-1.9559-1.602-1.5511 0 1.1149 2.3686 4.6737 2.8141 4.2281 0.21442-0.21442-0.33104-1.4191-1.2121-2.677zm0.52209-3.1088c-0.98762-0.98026-1.1025-0.8654-0.5598 0.5598 0.37553 0.98622 0.93469 1.5412 1.2426 1.2333s6.4e-4 -1.1148-0.68278-1.7931z" fill="#1a1a1a"/>
  <path d="m-19.824 377.62c-0.55-0.22524-8.65-1.3317-18-2.4588s-24.2-2.9219-33-3.9884-23.65-2.8587-33-3.9825c-9.35-1.1238-19.7-2.5402-23-3.1474-3.3-0.60724-19.834-1.3207-36.743-1.5855l-30.743-0.48139 0.4529-2.1443c1.3398-6.3433 3.7096-18.779 6.0305-31.644 1.4387-7.975 3.2439-17.65 4.0116-21.5s2.3513-12.175 3.5189-18.5c4.9039-26.564 9.502-51.152 11.968-64 1.003-5.225 2.7946-14.9 3.9814-21.5s2.9982-16.275 4.0254-21.5c1.0272-5.225 3.0472-16.025 4.4889-24 1.4417-7.975 3.234-17.65 3.983-21.5 2.0025-10.294 5.1624-27.115 8.0779-43 1.4132-7.7 3.1856-17.15 3.9385-21 0.75294-3.85 2.3207-12.175 3.4839-18.5 4.1879-22.772 6.0614-32.678 8.1843-43.276 2.0421-10.194 2.2272-10.626 3.428-8 0.69816 1.5266 4.2399 9.7507 7.8704 18.276 3.6306 8.525 7.2363 16.85 8.0127 18.5s3.4795 7.95 6.0069 14c2.5274 6.05 5.2335 12.35 6.0136 14 0.7801 1.65 8.1411 18.75 16.358 38 8.2167 19.25 15.641 36.575 16.5 38.5 0.85803 1.925 4.3313 10.025 7.7183 18 3.387 7.975 6.7549 15.85 7.4841 17.5 0.72922 1.65 6.123 14.25 11.986 28s11.254 26.35 11.98 28c0.72572 1.65 3.6662 8.3772 6.5345 14.949l5.215 11.949-1.2245 57.043c-0.67347 31.374-1.4153 57.352-1.6485 57.729s0.59513 0.882 1.8408 1.1214c1.4418 0.27713 0.99302 0.45611-1.2352 0.49255-1.925 0.0315-3.95-0.12706-4.5-0.35231zm9.3125-1.1157c0.72187-0.28887 1.5844-0.25335 1.9167 0.0789 0.33229 0.33229-0.25834 0.56864-1.3125 0.52522-1.165-0.048-1.4019-0.28494-0.60417-0.60416zm6.9375-0.97917c0.6875-0.27741 1.8125-0.27741 2.5 0s0.125 0.50439-1.25 0.50439-1.9375-0.22698-1.25-0.50439zm6.0625-1.0208c0.72187-0.28887 1.5844-0.25335 1.9167 0.0789 0.33229 0.33229-0.25834 0.56864-1.3125 0.52522-1.165-0.048-1.4019-0.28494-0.60417-0.60416zm7.2708-0.6822c0.22917-0.20091 4.0167-0.61356 8.4167-0.91699 5.7452-0.39619 6.8726-0.30947 4 0.30768-3.976 0.8542-13.213 1.3075-12.417 0.60931zm5.4167-2.6347c-0.33992-0.55-0.16803-1 0.38197-1s1.2781 0.45 1.618 1 0.16803 1-0.38197 1-1.2781-0.45-1.618-1zm9.75-0.0312c-2.7689-1.113-2.964-1.9683-0.28952-1.2689 1.9353 0.5061 1.9642-0.67246 2.25-91.844 0.15924-50.796 0.12206-93.153-0.0826-94.127-0.30303-1.4421-0.6468-1.5431-1.8509-0.54383-2.1168 1.7568-4.2408 1.8843-3.6008 0.21626 0.29576-0.77074 0.96616-1.4014 1.4898-1.4014 0.52361 0 0.71352-0.3859 0.42202-0.85756s1.0319-4.6172 2.941-9.2123c1.909-4.5951 3.471-8.5107 3.471-8.7014s0.40803-0.0946 0.90674 0.21365c0.49871 0.30822 0.65282-0.41059 0.34248-1.5974-0.42037-1.6075-0.22969-1.951 0.74776-1.3469 0.83662 0.51705 1.0703 0.41969 0.64482-0.2687-0.69082-1.1178 1.2001-6.2294 2.3044-6.2294 0.34386 0 0.67262-0.7875 0.73058-1.75 0.1156-1.9198 7.5387-19.799 8.704-20.964 0.39872-0.39871 0.41561 0.16136 0.0375 1.2446-0.67326 1.9291-0.65446 1.9284 0.91534-0.0305 1.806-2.2536 2.1794-3.9352 0.66634-3-0.55 0.33992-1 0.3847-1 0.0995 0-0.42803 4.8066-11.812 11.442-27.1 0.71618-1.65 4.0242-9.3 7.3511-17 3.327-7.7 9.9615-23 14.743-34 4.7819-11 9.4736-21.8 10.426-24s4.1429-9.5723 7.0901-16.383c2.9472-6.8105 5.4867-11.986 5.6432-11.5 0.26168 0.81162 7.6803 44.437 12.394 72.883 3.9581 23.886 4.8906 29.432 9.4165 56 2.5297 14.85 5.2108 30.825 5.958 35.5 1.5714 9.8317 3.9985 24.041 6.0636 35.5 0.79299 4.4 1.8716 10.925 2.3969 14.5 0.52529 3.575 2.1277 13.25 3.561 21.5 2.3713 13.649 3.848 22.464 7.9582 47.5 0.7675 4.675 2.1345 12.55 3.0379 17.5s1.7615 12.71 1.907 17.244c0.14553 4.5339 0.60765 8.5839 1.027 9 0.41929 0.41607 0.43752-1.0435 0.0405-3.2435-0.39701-2.2-0.45092-3.7513-0.1198-3.4473s1.2769 5.029 2.1018 10.5 1.7766 11.522 2.1148 13.447c0.44888 2.5545 0.33683 3.1026-0.41479 2.029-1.6046-2.292-2.6272-0.31043-1.2081 2.3411 1.7384 3.2483 0.9999 6.0656-1.6907 6.4495-1.2318 0.17582-2.2398 0.7469-2.2398 1.2691 0 0.52388 1.1688 0.65616 2.6073 0.2951 1.6188-0.40628 2.8932-0.19182 3.3614 0.56562 0.4147 0.671 0.61077-1.1806 0.4357-4.1147-0.29569-4.9557-0.23256-4.8374 0.88866 1.6653l1.207 7-30.5 0.64369c-16.775 0.35403-33.65 1.1673-37.5 1.8072-9.2614 1.5394-63.393 8.0708-66 7.9635-0.55-0.0226-2.0125-0.44813-3.25-0.94554zm6.25-0.9688c-0.33992-0.55-1.0415-1-1.559-1s-0.94098 0.45-0.94098 1 0.70156 1 1.559 1 1.2809-0.45 0.94098-1zm124.23-9.693c-0.97297-0.25354-2.323-0.23687-3 0.0371-0.67703 0.27393 0.11903 0.48137 1.769 0.46099 1.65-0.0204 2.2039-0.2445 1.231-0.49804zm5.269 0.25201c0-1.0555-1.9191-1.4989-2.4899-0.57533-0.34546 0.55897 0.0734 1.0163 0.9309 1.0163 0.85746 0 1.559-0.19844 1.559-0.44098zm-6.6384-9.059c0.31658-0.825 0.13972-1.5-0.39301-1.5-0.53274 0-0.96862 0.675-0.96862 1.5s0.17686 1.5 0.39301 1.5c0.21616 0 0.65203-0.675 0.96862-1.5zm3.6384 0.5c0-0.55-0.45-1-1-1s-1 0.45-1 1 0.45 1 1 1 1-0.45 1-1zm0.35578-9.2334c-0.35132-0.56844-1.0065-0.51596-1.655 0.13257-0.76464 0.76464-1.6672 0.57393-3.1371-0.66286-2.0306-1.7085-2.0356-1.703-0.31147 0.3448 0.9637 1.1446 1.4137 2.4222 1 2.839s0.47121 0.20201 1.9665-0.47738c1.4953-0.67939 2.457-1.6587 2.1371-2.1762zm-0.35578-3.3891c0-1.3288-0.27149-1.3971-1.5-0.37756-0.825 0.68469-1.5 1.4148-1.5 1.6224 0 0.20766 0.675 0.37756 1.5 0.37756s1.5-0.7301 1.5-1.6224zm-1-3.4674c0-0.42895-0.51878-2.0467-1.1528-3.595-0.63407-1.5483-1.3192-3.6878-1.5226-4.7544-0.53965-2.8303-1.3245-3.2423-1.3245-0.69527 0 1.2093 0.67201 3.8071 1.4934 5.7729 1.4348 3.4341 1.2861 5.3616-0.41371 5.3616-0.44127 0-0.64807-1.2375-0.45956-2.75 0.33769-2.7094 0.33075-2.7131-0.47094-0.25-1.2495 3.839-0.30838 5.4541 1.9744 3.3882 1.032-0.93398 1.8764-2.0491 1.8764-2.4781zm-4.3169-15.098c-0.31922-0.79773-0.55618-0.56078-0.60416 0.60417-0.0434 1.0542 0.19293 1.6448 0.52522 1.3125s0.36781-1.1948 0.0789-1.9167zm-1-20c-0.31922-0.79773-0.55618-0.56078-0.60416 0.60417-0.0434 1.0542 0.19293 1.6448 0.52522 1.3125s0.36781-1.1948 0.0789-1.9167zm-124.68-120.81c0-0.55 0.6199-1 1.3776-1 1.9412 0 4.0028-2.6469 2.6924-3.4568-1.0858-0.67105-7.07 3.2604-7.07 4.6448 0 0.44657 0.675 0.81194 1.5 0.81194s1.5-0.45 1.5-1zm1.2955-7.331c-0.3696-0.59802-0.96071-0.21852-1.3977 0.89733-1.2244 3.1266-0.94322 4.0777 0.60199 2.0363 0.78989-1.0435 1.148-2.3637 0.79569-2.9336zm2.8286-0.93572c-0.98762-0.98026-1.1025-0.8654-0.5598 0.5598 0.37553 0.98622 0.93469 1.5412 1.2426 1.2333s6.4e-4 -1.1148-0.68278-1.7931zm-1.6241-1.7333c0.33992-0.55 0.14148-1-0.44098-1s-1.059 0.45-1.059 1 0.19844 1 0.44098 1 0.7191-0.45 1.059-1zm1.5-3.5c0.71755-0.86459 0.81474-1.5 0.22943-1.5-0.5585 0-1.2745 0.675-1.5911 1.5-0.31658 0.825-0.41982 1.5-0.22943 1.5s0.90637-0.675 1.5911-1.5zm4.0849-8.6048c-0.52695-1.3174-0.98662-1.8695-1.0215-1.227-0.0847 1.5606 1.0802 4.5215 1.5816 4.0201 0.21887-0.21887-0.0332-1.4758-0.56015-2.7931zm3.9151-8.1246c0-0.58531-0.63541-0.48812-1.5 0.22943-0.825 0.68469-1.5 1.4007-1.5 1.5911s0.675 0.0872 1.5-0.22943c0.825-0.31659 1.5-1.0326 1.5-1.5911zm2.6507-6.2385c-0.30982-0.80739-0.13297-1.734 0.39301-2.059 0.52598-0.32508 0.94202-1.127 0.92453-1.782-0.0175-0.65504-0.66159-0.35974-1.4313 0.65622-1.247 1.6459-1.1325 4.6528 0.1771 4.6528 0.275 0 0.24651-0.66059-0.0633-1.468zm-22.651 226.47c-0.825-0.53316-1.05-0.96937-0.5-0.96937s1.675 0.43621 2.5 0.96937 1.05 0.96937 0.5 0.96937-1.675-0.43621-2.5-0.96937zm-24-125.94c0-0.51754 0.44485-1.2159 0.98855-1.5519 0.56686-0.35034 0.7345 0.0511 0.39301 0.94098-0.66479 1.7324-1.3816 2.0494-1.3816 0.61096zm2-4c0-0.51754 0.44485-1.2159 0.98855-1.5519 0.56686-0.35034 0.7345 0.0511 0.39301 0.94098-0.66479 1.7324-1.3816 2.0494-1.3816 0.61096zm10.031-22.559c0-0.55 0.43621-1.675 0.96937-2.5s0.96937-1.05 0.96937-0.5-0.43621 1.675-0.96937 2.5-0.96937 1.05-0.96937 0.5zm3.0809-7.25c1.132-3.3935 1.8884-4.1711 1.8884-1.9411 0 0.71988-0.66882 2.1824-1.4863 3.25-1.3598 1.7759-1.394 1.6645-0.40218-1.3089zm12.388-4.25c0.33992-0.55 0.81648-1 1.059-1s0.44098 0.45 0.44098 1-0.47656 1-1.059 1-0.7809-0.45-0.44098-1zm-7.7587-5.092c0.68273-0.8756 0.9877-1.8456 0.6777-2.1556-0.30999-0.31 0.34902-2.2936 1.4645-4.408 1.1155-2.1144 2.032-3.3944 2.0369-2.8444 5e-3 0.55-0.6017 2.1023-1.3478 3.4496s-1.1597 2.9627-0.91906 3.5898c0.24064 0.6271-0.37045 1.7748-1.358 2.5504-1.5989 1.2558-1.6596 1.2358-0.55419-0.1818zm7.592-1.908c0-1.65 0.21027-2.7897 0.46726-2.5328 0.81734 0.81735 1.0543 5.5328 0.27802 5.5328-0.4099 0-0.74528-1.35-0.74528-3zm-3.7356 1.2644c-0.32878-0.32877-0.59088-1.0853-0.58246-1.6811 8e-3 -0.59583 0.45153-0.40833 0.98469 0.41667 0.64625 1 0.97448 1.0833 0.98469 0.25 8e-3 -0.6875 0.46531-1.25 1.0153-1.25s1 0.40186 1 0.89301c0 1.124-2.6011 2.1725-3.4022 1.3714zm0.97723-4.1431c-0.38716-0.62643 0.0367-1.4188 0.94546-1.7676 1.3167-0.50525 1.3796-0.80178 0.31339-1.4776-1.036-0.65672-0.96169-0.84894 0.33282-0.86084 0.91666-8e-3 1.8722-0.57781 2.1235-1.2653s0.40125-0.0557 0.33333 1.404c-0.0679 1.4597-0.43333 2.4628-0.81203 2.229s-1.1039 0.31718-1.6116 1.2244c-0.63403 1.133-1.1428 1.2939-1.6248 0.51397zm-0.16876-6.273c-0.39148-0.63344 0.0983-1.744 1.0883-2.468 1.8592-1.3595 3.5054-1.013 3.5054 0.7377 0 0.55-0.45 0.72189-1 0.38197s-1 0.0835-1 0.94098c0 1.823-1.5668 2.069-2.5938 0.40732z" fill="#131313"/>
  <path d="m-19.417 377.76c-0.41295-0.41295-17.678-2.6074-51.889-6.595-9.0651-1.0567-17.615-2.1564-19-2.4439-1.3849-0.28749-8.5929-1.1963-16.018-2.0195-7.425-0.82325-15.975-1.9768-19-2.5634s-19.783-1.3194-37.239-1.6286c-31.724-0.56178-31.739-0.56304-31.29-2.6924 1.0364-4.913 3.5544-17.833 5.385-27.63 3.9316-21.043 6.1167-32.786 8.6522-46.5 1.4236-7.7 3.0272-16.025 3.5634-18.5s1.6202-8.325 2.4086-13 2.3883-13.45 3.5553-19.5 2.947-15.5 3.9558-21c2.7606-15.052 5.6966-30.733 8.051-43 1.1612-6.05 2.9611-15.725 3.9998-21.5s2.8302-15.45 3.9811-21.5 2.9271-15.5 3.9473-21c3.626-19.549 5.9846-32.146 8.051-43 2.0886-10.971 3.9908-21.17 7.8328-42 1.1159-6.05 2.5718-13.61 3.2352-16.799 1.4122-6.7901 0.15767-8.6352 10.403 15.299 6.5466 15.294 14.83 34.606 16.515 38.5 0.47578 1.1 3.1726 7.4 5.9929 14 2.8203 6.6 5.5236 12.9 6.0073 14 0.48372 1.1 3.8639 8.975 7.5114 17.5 3.6476 8.525 7.7488 18.089 9.1139 21.253 1.3651 3.164 2.1616 6.271 1.7701 6.9045-0.40573 0.65649-0.27501 0.88178 0.30402 0.52393 0.57324-0.35429 2.2276 2.3014 3.797 6.0955 1.5296 3.6978 5.041 11.898 7.803 18.223s6.024 13.975 7.2488 17c1.2248 3.025 9.5324 22.375 18.461 43 8.9288 20.625 16.893 39.3 17.699 41.5 1.209 3.3006 1.3604 8.5462 0.86582 30-0.32964 14.3-0.828 36.125-1.1075 48.5-0.27946 12.375-0.77004 26.396-1.0902 31.158-0.52821 7.857-0.41106 8.7017 1.2668 9.134 1.1274 0.29048 0.64571 0.52162-1.2345 0.59236-1.6958 0.0638-3.2754-0.0761-3.5101-0.3108zm16.906-2.2563c0.72187-0.28887 1.5844-0.25335 1.9167 0.0789 0.33229 0.33229-0.25834 0.56864-1.3125 0.52522-1.165-0.048-1.4019-0.28494-0.60417-0.60416zm18.938-1.9792c0.6875-0.27741 1.8125-0.27741 2.5 0s0.125 0.50439-1.25 0.50439-1.9375-0.22698-1.25-0.50439zm6.0625-1.0208c0.72187-0.28887 1.5844-0.25335 1.9167 0.0789 0.33229 0.33229-0.25834 0.56864-1.3125 0.52522-1.165-0.048-1.4019-0.28494-0.60417-0.60416zm5.9185-0.97283c0.67703-0.27392 2.027-0.29059 3-0.0371 0.97297 0.25354 0.41903 0.47766-1.231 0.49804-1.65 0.0204-2.4461-0.18706-1.769-0.46099zm6.519-1.0334c0.9625-0.25152 2.5375-0.25152 3.5 0 0.9625 0.25153 0.175 0.45733-1.75 0.45733s-2.7125-0.2058-1.75-0.45733zm10.014-1.0282c1.5201-0.22986 3.7701-0.22371 5 0.0136 1.2299 0.23736-0.0138 0.42542-2.7638 0.41792-2.75-8e-3 -3.7563-0.20172-2.2362-0.43157zm8.4672-0.93836c0.67703-0.27392 2.027-0.29059 3-0.0371 0.97297 0.25354 0.41903 0.47766-1.231 0.49804-1.65 0.0204-2.4461-0.18706-1.769-0.46099zm7.7568-1.2201c1.6433-0.35167 3.0366-1.3109 3.0963-2.1317 0.0621-0.85428-0.0704-0.9606-0.30988-0.24869-0.27627 0.82117-2.3471 1.1931-6.0963 1.0948-5.5747-0.14607-5.6234-0.17239-2.6779-1.4485 2.6781-1.1603 2.6781-1.9454 0-1.4369-0.55 0.10441-0.4375-0.3823 0.25-1.0816 0.98642-1.0033 1.25-27.376 1.25-125.07 0-73.342 0.36942-123.8 0.90638-123.8 1.4395 0 0.0568-3.8001-1.6163-4.4422-1.069-0.41023-1.3368-0.12195-0.91291 0.98277 0.32993 0.8598 0.20219 1.3175-0.28388 1.0171s-1.1559 0.16303-1.4886 1.0298c-0.98104 2.5566-0.70857 3.4125 1.0864 3.4125 1.5254 0 1.5132 0.13013-0.125 1.328-0.99887 0.73039-1.8161 2.5395-1.8161 4.0202 0 2.4502-0.11688 2.5331-1.3003 0.92201-1.1989-1.6322-1.3862-1.545-2.403 1.1185-0.60648 1.5888-1.3476 2.6437-1.647 2.3444-0.29938-0.29937 0.36832-2.2743 1.4838-4.3887 1.5052-2.8532 2.0576-3.3287 2.1426-1.8444l0.11448 2 0.85943-2c1.1828-2.7525 1.1828-3.731 0-3-1.4982 0.92592-1.2299-0.14076 1.2048-4.7898 2.2084-4.217 2.4375-4.7978 2.6702-6.7692 0.0688-0.58246 0.51486-0.81807 0.99135-0.52358 1.1019 0.68103 4.6838-3.2006 3.7838-4.1005-0.36897-0.36898-1.3269 0.19628-2.1287 1.2561-2.4325 3.2152-1.7323 0.94339 2.9958-9.7205 2.4845-5.6036 5.4095-10.813 6.5-11.577 1.0905-0.76381 1.9827-1.8992 1.9827-2.5232 0-0.62393-0.66069-0.26092-1.4682 0.8067-0.8075 1.0676-1.4825 1.6189-1.5 1.2251-0.0642-1.4459 3.3657-7.7839 4.2124-7.7839 0.48059 0 0.60793-0.43019 0.28297-0.95598-0.80893-1.3089 2.0977-8.014 4.2334-9.7657 0.95666-0.78465 1.1185-1.1056 0.35966-0.71329-0.92326 0.47735-1.2128 0.25375-0.875-0.67584 0.2776-0.76406 1.0444-1.2655 1.7041-1.1144 0.65963 0.15113 0.90889-0.19517 0.5539-0.76955-0.88209-1.4273 1.4337-8.1623 2.5659-7.4625 0.49937 0.30863 0.61163-0.21105 0.24947-1.1548-0.48212-1.2564-0.30375-1.4967 0.66596-0.89743 0.83478 0.51592 1.0842 0.42991 0.67477-0.23264-0.87526-1.4162 1.7499-7.4948 2.8177-6.5245 0.464 0.42166 0.54948 0.25196 0.18995-0.37711-0.35952-0.62907 0.0649-2.8791 0.94327-5 1.7577-4.2443 2.587-6.1612 10.458-24.172l5.3821-12.316 1.2964 6.8155c0.71304 3.7485 2.1687 12.216 3.2349 18.816s3.7774 22.8 6.025 36c2.2476 13.2 4.7008 27.825 5.4515 32.5 0.75072 4.675 2.1071 12.775 3.0142 18 0.90709 5.225 2.5406 14.9 3.6299 21.5 1.0894 6.6 2.6384 15.6 3.4424 20s2.1571 12.275 3.007 17.5c2.5872 15.906 8.0842 48.98 11.551 69.5 1.115 6.6 2.663 16.189 3.4399 21.31 0.77694 5.1204 1.8395 10.97 2.3613 13 1.4019 5.4532 2.2176 17.188 1.0212 14.69-0.69639-1.454-0.80372-0.77149-0.39313 2.5 0.53669 4.2764 0.48375 4.4006-1.0652 2.5-1.4479-1.7766-1.565-1.7954-1.0483-0.16821 0.3199 1.0075 0.58853 2.8075 0.59695 4 0.0128 1.8126 0.19231 1.9222 1.0943 0.66821 0.89739-1.2475 0.97897-1.1917 0.48468 0.33179-0.32688 1.0075-0.59433 2.9465-0.59433 4.309 0 1.7156-0.3843 2.2464-1.25 1.7263-0.96229-0.57813-0.9557-0.38756 0.0287 0.82796 0.96973 1.1975 1.229 7.1605 1.0732 24.682-0.11296 12.707 0.0952 23.404 0.46268 23.771 0.36744 0.36744 0.20012 1.2319-0.37181 1.921-0.72047 0.86811-0.7178 1.452 9e-3 1.901 1.5895 0.98238 1.257 2.3289-0.70144 2.8407-0.9625 0.25153 1.7 0.50953 5.9167 0.57333 5.2896 0.08 7.823-0.27156 8.171-1.134 0.30132-0.74674 0.53617-0.54544 0.58333 0.5 0.0731 1.6214-1.7398 1.7507-24.671 1.76-15.919 6e-3 -29.388 0.55913-37.75 1.5491-7.15 0.84651-18.4 2.1824-25 2.9687-12.348 1.4711-18.395 1.7481-13.012 0.59615zm9.0387-2.9308c-0.30789-0.30789-1.1148-6.4e-4 -1.7931 0.68278-0.98026 0.98762-0.8654 1.1025 0.5598 0.5598 0.98622-0.37553 1.5412-0.93469 1.2333-1.2426zm17.203-0.7973c-0.33229-0.33229-1.1948-0.36781-1.9167-0.0789-0.79773 0.31922-0.56078 0.55618 0.60417 0.60416 1.0542 0.0434 1.6448-0.19293 1.3125-0.52522zm-27.979-178.65c-0.14675-30.938-0.26682-5.625-0.26682 56.25s0.12007 87.188 0.26682 56.25 0.14675-81.562 0-112.5zm86.933 89.062c-0.31922-0.79773-0.55618-0.56078-0.60416 0.60417-0.0434 1.0542 0.19293 1.6448 0.52522 1.3125s0.36781-1.1948 0.0789-1.9167zm-87.183-168.81c0.78218-1.2656-0.54163-1.2656-2.5 0-1.2927 0.8354-1.2663 0.97149 0.19098 0.98469 0.93004 8e-3 1.9691-0.43469 2.309-0.98469zm3.5-3c0.5887-1.1 0.84537-2 0.57037-2s-0.98167 0.9-1.5704 2-0.84537 2-0.57037 2 0.98167-0.9 1.5704-2zm0.81653-8.6169c0.17409-0.10055-0.14083-0.46549-0.69983-0.81097-0.55899-0.34548-1.5626 0.39696-2.2302 1.6499-1.1444 2.1476-1.1043 2.194 0.69983 0.81098 1.0526-0.80687 2.0562-1.5493 2.2302-1.6499zm2.6118-5.1331c-0.49777-0.4125-1.2409-1.2-1.6514-1.75-0.42591-0.57068-0.7529-0.24868-0.76164 0.75-9e-3 0.97279 0.72489 1.75 1.6514 1.75 0.91666 0 1.2594-0.3375 0.76163-0.75zm5.2976-14.238c-0.0889-1.1797-0.5161-1.6217-1.0507-1.0871-0.49552 0.49553-0.59861 1.3902-0.22907 1.9881 1.0067 1.6288 1.447 1.3188 1.2798-0.90096zm12.656-29.564c0.34149-0.88992 0.17385-1.2913-0.39301-0.94098-0.5437 0.33602-0.98855 1.0344-0.98855 1.5519 0 1.4384 0.71677 1.1215 1.3816-0.61096zm9-23c0.34149-0.88992 0.17385-1.2913-0.39301-0.94098-0.5437 0.33602-0.98855 1.0344-0.98855 1.5519 0 1.4384 0.71677 1.1215 1.3816-0.61096zm66.813 329.05c0.0204-1.65 0.2445-2.2039 0.49804-1.231s0.23687 2.323-0.0371 3c-0.27393 0.67703-0.48137-0.11903-0.46099-1.769zm-1.116-5.0833c0.048-1.165 0.28494-1.4019 0.60416-0.60417 0.28887 0.72187 0.25335 1.5844-0.0789 1.9167-0.33229 0.33229-0.56864-0.25834-0.52522-1.3125zm-0.92106-5.4167c0-1.375 0.22698-1.9375 0.50439-1.25s0.27741 1.8125 0 2.5-0.50439 0.125-0.50439-1.25zm-1.9629-13.5c0.0204-1.65 0.2445-2.2039 0.49804-1.231s0.23687 2.323-0.0371 3c-0.27393 0.67703-0.48137-0.11903-0.46099-1.769zm-1.116-5.0833c0.048-1.165 0.28494-1.4019 0.60416-0.60417 0.28887 0.72187 0.25335 1.5844-0.0789 1.9167-0.33229 0.33229-0.56864-0.25834-0.52522-1.3125zm-1-5c0.048-1.165 0.28494-1.4019 0.60416-0.60417 0.28887 0.72187 0.25335 1.5844-0.0789 1.9167-0.33229 0.33229-0.56864-0.25834-0.52522-1.3125zm-0.884-5.9167c0.0204-1.65 0.2445-2.2039 0.49804-1.231s0.23687 2.323-0.0371 3c-0.27393 0.67703-0.48137-0.11903-0.46099-1.769zm-1.0451-5.625c-0.0824-1.4438-0.37331-4.1438-0.64644-6l-0.49661-3.375 1.0528 3.3564c0.57902 1.846 0.86992 4.546 0.64644 6l-0.40633 2.6436zm-1.9919-11.875c0-1.375 0.22698-1.9375 0.50439-1.25s0.27741 1.8125 0 2.5-0.50439 0.125-0.50439-1.25zm-123.16-122.94c0-0.51754 0.44485-1.2159 0.98855-1.5519 0.56686-0.35034 0.7345 0.0511 0.39301 0.94098-0.66479 1.7324-1.3816 2.0494-1.3816 0.61096zm2.0354-3.1942c-0.0195-0.34935 0.62195-2.1494 1.4254-4s1.4625-2.6898 1.4646-1.8648c4e-3 1.4411-2.8174 7.1659-2.89 5.8648zm9.1307-14.741c-1.0977-0.69583-1.0829-0.94181 0.0833-1.3894 0.8084-0.31021 1.4172 0.0596 1.4172 0.86084 0 0.77256-0.0375 1.3978-0.0833 1.3894-0.0458-8e-3 -0.68356-0.3958-1.4172-0.86084zm-1.4099-2.7093c0.69093-0.32198 1.0211-0.96588 0.73369-1.4309s-0.10471-1.1037 0.40598-1.4194c0.51069-0.31563 0.81622 0.19138 0.67894 1.1267-0.13727 0.9353-0.88527 1.8374-1.6622 2.0048-0.95702 0.2061-1.0075 0.1154-0.1564-0.2812zm5.2744-6.9146c0-0.55 0.43621-1.675 0.96937-2.5s0.96937-1.05 0.96937-0.5-0.43621 1.675-0.96937 2.5-0.96937 1.05-0.96937 0.5zm-0.95034-3.5c1.4578-3.061 1.9197-3.6283 1.9197-2.3578 0 0.53655-0.69982 1.849-1.5552 2.9167-1.4664 1.8303-1.4872 1.7984-0.36454-0.55887zm5.5432-2.5387c-0.96498-2.5147-0.68031-3.1636 0.49853-1.1363 0.58369 1.0038 0.8506 2.0357 0.59313 2.2931s-0.74872-0.26309-1.0917-1.1568zm6.5344-2.4613c0-1.375 0.22698-1.9375 0.50439-1.25s0.27741 1.8125 0 2.5-0.50439 0.125-0.50439-1.25zm-10.158-0.94098c0-0.51754 0.44485-1.2159 0.98855-1.5519 0.56686-0.35034 0.7345 0.0511 0.39301 0.94098-0.66479 1.7324-1.3816 2.0494-1.3816 0.61096zm11-13c0-0.51754 0.44485-1.2159 0.98855-1.5519 0.56686-0.35034 0.7345 0.0511 0.39301 0.94098-0.66479 1.7324-1.3816 2.0494-1.3816 0.61096z" fill="#0b0b0b"/>
  <path d="m-25.824 376.64c-4.4-0.69887-11.375-1.5658-15.5-1.9265-4.125-0.36068-9.975-1.0682-13-1.5722-3.025-0.50406-11.35-1.5917-18.5-2.4169-26.295-3.0349-46.165-5.5458-52.5-6.6341-3.575-0.6142-20.455-1.4058-37.511-1.7591l-31.011-0.64234 0.83894-5.2608c0.46141-2.8934 1.2487-5.0076 1.7495-4.6981 0.50081 0.30952 0.66788-0.0696 0.37128-0.84257-0.55373-1.443 0.87686-10.869 4.5831-30.199 2.5648-13.376 5.3725-28.318 8.08-43 4.288-23.253 5.8089-31.364 7.8748-42 1.1751-6.05 3.0408-15.95 4.146-22s2.8391-15.5 3.8532-21 2.5744-14.05 3.4673-19 2.2626-12.15 3.0436-16c0.78107-3.85 2.3718-12.175 3.535-18.5 1.1632-6.325 2.9582-16 3.9889-21.5 3.7566-20.045 6.8827-37.087 7.48-40.778 0.33628-2.0778 0.9967-3.5397 1.4676-3.2486s0.64306-0.28594 0.38253-1.2822c-0.26052-0.99625 0.2817-5.8344 1.2049-10.751 0.92324-4.917 2.4264-13.355 3.3402-18.75 0.94227-5.563 2.0456-9.4593 2.5486-9 0.48786 0.44551 0.62114 0.34108 0.29617-0.23206-0.52468-0.92539 1.7511-16.218 4.001-26.884 0.90475-4.2895 2.9223-5.8081 3.8616-2.9067 0.32641 1.0082 1.9118 4.8973 3.523 8.6423 1.6112 3.745 2.6249 7.302 2.2526 7.9045-0.40642 0.65759-0.21556 0.81022 0.47751 0.38188 0.67345-0.41622 1.1545-0.09865 1.1545 0.76216 0 0.81163-0.3375 1.6644-0.75 1.8951s-0.2435 0.3038 0.37555 0.16248c1.3361-0.30503 3.6512 4.328 2.8281 5.6597-0.31445 0.50878-0.0686 0.92506 0.54631 0.92506 0.61492 0 0.86368 0.41156 0.55279 0.91459-0.31089 0.50302-0.21811 1.0655 0.20618 1.25 0.42429 0.18448 2.256 3.7104 4.0704 7.8354 1.8144 4.125 3.7353 8.3058 4.2687 9.2907 0.53336 0.98487 0.7267 2.1839 0.42964 2.6646s-0.13887 1.0248 0.35155 1.2093c1.0804 0.4064 9.2066 19.324 9.3992 21.882 0.0752 0.99839 0.45706 1.6173 0.84856 1.3753 0.6752-0.41729 3.3219 5.9525 3.3566 8.0785 9e-3 0.55 0.41858 1.2916 0.91018 1.6479 1.3809 1.001 3.5005 7.8521 2.4293 7.8521-0.51764 0-0.65852 0.45734-0.31306 1.0163s1.0087 0.7811 1.4739 0.49361 1.6366 1.6177 2.6031 4.2337c0.96654 2.616 2.1686 5.2992 2.6712 5.9626 0.50264 0.6634 0.58062 1.7454 0.17329 2.4045-0.46851 0.75808-0.31645 0.93618 0.41391 0.48479 0.63498-0.39244 1.1545-0.27377 1.1545 0.26371 0 0.53747 0.30147 1.7628 0.66994 2.7231 0.49883 1.2999 0.30727 1.5541-0.75 0.99501-0.78097-0.41295-0.3372 0.13064 0.98615 1.208 1.5752 1.2824 2.1835 2.5389 1.7615 3.6387-0.43174 1.1251-0.26203 1.4434 0.51384 0.96391 0.77368-0.47816 0.94638-0.16325 0.51993 0.94807-0.3512 0.91522-0.25809 1.664 0.20692 1.664 1.2984 0 5.2658 9.9093 4.4779 11.184-0.40761 0.65952-0.24737 0.84801 0.3874 0.4557 1.3105-0.80995 2.6472 2.8702 1.6365 4.5056-0.42186 0.68259-0.2852 0.89532 0.33067 0.51469 1.1883-0.73442 2.5646 2.0367 1.7035 3.43-0.30925 0.50037-0.0592 0.90976 0.55577 0.90976 0.61492 0 0.83992 0.45 0.5 1s-0.1855 1 0.34316 1c1.2744 0 3.3103 5.9427 2.4904 7.2694-0.37276 0.60313-0.1578 0.74006 0.51197 0.32611 1.0309-0.63714 1.604 0.55787 1.2729 2.6545-0.0651 0.4125 0.33158 0.75 0.88158 0.75s1 0.47469 1 1.0549c0 0.58018 0.94749 3.1677 2.1055 5.75 8.6221 19.226 10.974 25.257 10.286 26.371-0.39434 0.63807-0.25735 0.85922 0.31364 0.50633 1.208-0.74656 4.5204 7.1441 3.6145 8.61-0.34554 0.5591-0.14499 0.71787 0.44566 0.35283 0.63619-0.39319 1.567 0.86853 2.2838 3.0955 0.66542 2.0676 2.6629 6.9092 4.4388 10.759 5.2375 11.354 6.1775 14.471 4.6493 15.415-1.0212 0.63111-0.94921 0.94254 0.3313 1.4339 0.95604 0.36687 1.3819 0.21692 1.0248-0.36083-0.33602-0.5437-0.1344-0.98855 0.44806-0.98855s1.059 0.74254 1.059 1.6501c0 1.5248 2.6424 7.6202 7.1351 16.459 1.0089 1.985 2.0001 4.46 2.2025 5.5 0.20242 1.04 1.285 3.916 2.4057 6.391 1.9867 4.3873 2.017 5.4766 1.2135 43.5-1.0921 51.676-2.0332 77.531-2.816 77.361-0.35241-0.0765-4.2408-0.71089-8.6408-1.4098zm4.897-129.28c0.28327-0.45834-0.12038-0.83334-0.89699-0.83334s-1.1803 0.375-0.89699 0.83334c0.28326 0.45833 0.68691 0.83333 0.89699 0.83333s0.61373-0.375 0.89699-0.83333zm-142.73-41.417c-0.27741-0.6875-0.50438-0.125-0.50438 1.25s0.22697 1.9375 0.50438 1.25c0.27742-0.6875 0.27742-1.8125 0-2.5zm114.68-25.293c-0.32569-0.84872-0.80663-1.3287-1.0688-1.0665-0.26213 0.26213-0.17998 0.95654 0.18255 1.5431 0.98605 1.5955 1.5624 1.2855 0.8862-0.4766zm-19.948-45.29c0.28327-0.45834-0.12038-0.83334-0.89699-0.83334s-1.1803 0.375-0.89699 0.83334c0.28326 0.45833 0.68691 0.83333 0.89699 0.83333s0.61373-0.375 0.89699-0.83333zm-4.2749-10.842c-1.1788-2.0272-1.4635-1.3784-0.49853 1.1363 0.34294 0.8937 0.83419 1.4143 1.0917 1.1568s-9e-3 -1.2894-0.59313-2.2931zm-11.122-26.325c0-0.55-0.47656-1-1.059-1s-0.7809 0.45-0.44098 1 0.81648 1 1.059 1 0.44098-0.45 0.44098-1zm-50.317-45.188c-0.31923-0.79773-0.55619-0.56078-0.60417 0.60417-0.0434 1.0542 0.19293 1.6448 0.52522 1.3125 0.33229-0.33229 0.36782-1.1948 0.079-1.9167zm12.439-42.487c-1.1788-2.0272-1.4635-1.3784-0.49854 1.1363 0.34295 0.8937 0.8342 1.4143 1.0917 1.1568 0.25746-0.25747-9e-3 -1.2894-0.59313-2.2931zm151.69 360.99c0.72187-0.28887 1.5844-0.25335 1.9167 0.0789 0.33229 0.33229-0.25834 0.56864-1.3125 0.52522-1.165-0.048-1.4019-0.28494-0.60417-0.60416zm20-2c0.72187-0.28887 1.5844-0.25335 1.9167 0.0789 0.33229 0.33229-0.25834 0.56864-1.3125 0.52522-1.165-0.048-1.4019-0.28494-0.60417-0.60416zm5-1c0.72187-0.28887 1.5844-0.25335 1.9167 0.0789 0.33229 0.33229-0.25834 0.56864-1.3125 0.52522-1.165-0.048-1.4019-0.28494-0.60417-0.60416zm5.9185-0.97283c0.67703-0.27392 2.027-0.29059 3-0.0371 0.97297 0.25354 0.41903 0.47766-1.231 0.49804-1.65 0.0204-2.4461-0.18706-1.769-0.46099zm7.0815-1.0272c0.72187-0.28887 1.5844-0.25335 1.9167 0.0789 0.33229 0.33229-0.25834 0.56864-1.3125 0.52522-1.165-0.048-1.4019-0.28494-0.60417-0.60416zm12.688-1.2574c2.75-0.44146 7.8427-1.1527 11.317-1.5805 3.7705-0.4643 5.8022-1.0962 5.0398-1.5674-0.99933-0.61762-0.90583-1.2 0.42957-2.6756 0.93883-1.0374 1.6366-2.9774 1.5506-4.311-0.086-1.3337-0.24615-76.089-0.35582-166.12l-0.19941-163.7 2.1091-0.46371c1.188-0.2612 0.58062-0.45762-1.3909-0.44977-5.4717 0.0218-5.7353-0.06864-6.2808-2.1545-0.29269-1.1192-0.0455-1.8729 0.57398-1.75 0.59843 0.1187 1.2515-0.68419 1.4512-1.7842 0.29848-1.6439 0.17824-1.7329-0.6753-0.5-1.3126 1.896-1.3772 0.02425-0.0691-2 0.70439-1.09 0.97356-1.1422 0.98469-0.19098 8e-3 0.71996 0.48716 1.0174 1.0639 0.66097 0.72438-0.44769 0.72819-1.0341 0.0123-1.8967-1.1574-1.3947 2.2278-9.5733 3.9625-9.5733 0.53716 0 0.97666-0.47656 0.97666-1.059s-0.45341-0.77879-1.0076-0.43629c-0.55417 0.3425-0.44441-0.61332 0.24392-2.124l1.2515-2.7468 0.69845 3.9331c0.38415 2.1632 0.67953 4.8331 0.6564 5.9331-0.034 1.6175-0.19516 1.5219-0.84269-0.5-0.44035-1.375-0.8455-1.9375-0.90032-1.25-0.0548 0.6875-0.60061 1.1375-1.2129 1-0.61225-0.1375-1.2885 0.875-1.5028 2.25-0.28625 1.8368-0.14108 2.1147 0.5472 1.0477 0.51525-0.79874 0.70814-1.9237 0.42864-2.5s0.2002-0.17424 1.066 0.89338c0.86579 1.0676 1.5673 2.4176 1.5588 3-8e-3 0.58238-0.45153 0.38387-0.98469-0.44113-0.8354-1.2927-0.97149-1.2663-0.98469 0.19098-0.0246 2.7215 1.9237 3.1436 2.877 0.62326 0.74739-1.9758 0.96616-1.5831 1.496 2.6858 0.34133 2.75 1.5165 9.95 2.6114 16 1.095 6.05 2.6845 15.275 3.5323 20.5 2.4305 14.979 4.1515 25.335 6.9449 41.787 1.4275 8.4078 2.2847 15.79 1.9048 16.405-0.37992 0.61472-0.25017 0.84537 0.28834 0.51255 0.57776-0.35708 1.4536 2.7563 2.1367 7.5955 1.1134 7.8878 1.8657 12.485 6.1694 37.701 1.0795 6.325 2.8952 17.125 4.0348 24 1.1396 6.875 2.7378 16.1 3.5515 20.5 0.81373 4.4 1.9337 11.375 2.4889 15.5s1.4732 9.2252 2.0401 11.334c0.56691 2.1085 0.69335 5.2585 0.28098 7-0.41236 1.7415-0.63475 3.774-0.49419 4.5167 0.14055 0.7427-0.21939 1.0568-0.79987 0.69806-0.64165-0.39656-0.82195-0.0438-0.4599 0.89965 0.8577 2.2351 1.2192 1.9531 2.1765-1.6981 0.8087-3.0845 0.88802-2.9484 1.5577 2.673 0.45839 3.848 0.33279 6.1534-0.35853 6.5807-1.2683 0.78387-1.1992-2.8288-1.1469 59.961 0.0275 33.011-0.31201 50.891-0.98161 51.698-0.78705 0.94833 0.32359 1.3173 4.8054 1.5966 3.206 0.19975-3.1709 0.46231-14.171 0.58346s-25.4 0.91433-32 1.7626c-6.6 0.8483-14.475 1.7032-17.5 1.8999l-5.5 0.35753zm21.229-3.6637c-0.33229-0.33229-1.1948-0.36781-1.9167-0.0789-0.79773 0.31922-0.56078 0.55618 0.60417 0.60416 1.0542 0.0434 1.6448-0.19293 1.3125-0.52522zm7-1c-0.33229-0.33229-1.1948-0.36781-1.9167-0.0789-0.79773 0.31922-0.56078 0.55618 0.60417 0.60416 1.0542 0.0434 1.6448-0.19293 1.3125-0.52522zm30.771-114.4c-0.37544-1.1829-0.90761-1.9257-1.1826-1.6507s-0.19283 1.4678 0.18261 2.6507 0.90761 1.9257 1.1826 1.6507 0.19283-1.4678-0.18261-2.6507zm2.0884-2.7449c-1.0755-1.0755-1.6464 0.43075-0.89148 2.3518 0.7082 1.8021 0.76169 1.8052 1.1119 0.0649 0.20237-1.0056 0.10317-2.093-0.22045-2.4167zm-2.3098-14.927c-0.93059-3.7222-0.95465-3.6686-0.86787 1.9341 0.064 4.1298 0.33514 5.2144 0.95712 3.8283 0.50275-1.1204 0.4652-3.5447-0.0892-5.7624zm-8.6163-50.578c-0.27741-0.6875-0.50439-0.125-0.50439 1.25s0.22698 1.9375 0.50439 1.25 0.27741-1.8125 0-2.5zm-14.662-88.358c0-0.82763-1.9417-1.2956-2.3869-0.57533-0.28881 0.46731 0.13009 0.84965 0.9309 0.84965 0.8008 0 1.456-0.12345 1.456-0.27432zm-2.8779-12.067c-1.1788-2.0272-1.4635-1.3784-0.49853 1.1363 0.34294 0.8937 0.83419 1.4143 1.0917 1.1568s-9e-3 -1.2894-0.59313-2.2931zm-1.9262-16.075c-0.28974-1.5125-0.71979-2.1727-0.95566-1.467-0.42534 1.2725 0.33557 4.217 1.0898 4.217 0.216 0 0.15565-1.2375-0.13409-2.75zm-3.6958-6.25c0.33992-0.55 0.14148-1-0.44098-1s-1.059 0.45-1.059 1 0.19844 1 0.44098 1 0.7191-0.45 1.059-1zm-2-5c-0.37544-1.1829-0.90761-1.9257-1.1826-1.6507s-0.19283 1.4678 0.18261 2.6507 0.90761 1.9257 1.1826 1.6507 0.19283-1.4678-0.18261-2.6507zm3.1831 0.8125c-0.31922-0.79773-0.55618-0.56078-0.60416 0.60417-0.0434 1.0542 0.19293 1.6448 0.52522 1.3125 0.33229-0.33229 0.36781-1.1948 0.0789-1.9167zm-0.76871-7.8125c-0.0362-0.98906-0.34772-0.81874-0.9144 0.5-1.1813 2.7491-1.1813 4.328 0 2.5 0.53316-0.825 0.94464-2.175 0.9144-3zm0.0856-3.166c0-0.52362-0.42362-0.69022-0.94138-0.37022-0.51777 0.31999-0.88533-0.44095-0.81682-1.691 0.39705-7.2443-1.2367-10.594-1.7826-3.6548-0.16781 2.1332 0.037 2.7082 0.63081 1.7705 0.73207-1.156 0.87931-1.1373 0.87931 0.11148 0 0.825-0.41341 2.1535-0.9187 2.9523s-0.70899 1.7916-0.45266 2.2063c0.61148 0.98939 3.402-0.09711 3.402-1.3246zm-3.3169-13.021c-0.31922-0.79773-0.55618-0.56078-0.60416 0.60417-0.0434 1.0542 0.19293 1.6448 0.52522 1.3125 0.33229-0.33229 0.36781-1.1948 0.0789-1.9167zm-6.4773-4.8125c1.6992 0 1.8316-0.25007 0.79422-1.5-0.97112-1.1701-0.98068-1.8184-0.0435-2.9476 0.91364-1.1009 0.92488-1.8794 0.0469-3.25-0.94192-1.4705-1.0602-1.4954-0.64214-0.13512 0.28227 0.9185-0.13292 1.9149-0.92449 2.2186-0.79018 0.30326-1.4368 1.7171-1.4368 3.1418 0 1.4723-0.43164 2.3236-1 1.9724-1.1486-0.7099-1.3646 0.80204-0.27083 1.8958 0.40104 0.40104 0.88854 0.25104 1.0833-0.33333s1.2718-1.0625 2.3933-1.0625zm5.7942-5c0-0.55-0.45-1-1-1s-1 0.45-1 1 0.45 1 1 1 1-0.45 1-1zm-23.188 346.32c0.72187-0.28887 1.5844-0.25335 1.9167 0.0789 0.33229 0.33229-0.25834 0.56864-1.3125 0.52522-1.165-0.048-1.4019-0.28494-0.60417-0.60416zm14.266-8.9002c0.048-1.165 0.28494-1.4019 0.60416-0.60417 0.28887 0.72187 0.25335 1.5844-0.0789 1.9167-0.33229 0.33229-0.56864-0.25834-0.52522-1.3125zm53.079-75.417c0-1.375 0.22698-1.9375 0.50439-1.25s0.27741 1.8125 0 2.5-0.50439 0.125-0.50439-1.25zm-1.0789-4.5833c0.048-1.165 0.28494-1.4019 0.60416-0.60417 0.28887 0.72187 0.25335 1.5844-0.0789 1.9167-0.33229 0.33229-0.56864-0.25834-0.52522-1.3125zm-0.92106-5.4167c0-1.375 0.22698-1.9375 0.50439-1.25s0.27741 1.8125 0 2.5-0.50439 0.125-0.50439-1.25zm-1-5c0-1.375 0.22698-1.9375 0.50439-1.25s0.27741 1.8125 0 2.5-0.50439 0.125-0.50439-1.25zm-4.1579-8c0-0.55 0.45-1 1-1s1 0.45 1 1-0.45 1-1 1-1-0.45-1-1zm3.1579-1c0-1.375 0.22698-1.9375 0.50439-1.25s0.27741 1.8125 0 2.5-0.50439 0.125-0.50439-1.25zm-1.0789-4.5833c0.048-1.165 0.28494-1.4019 0.60416-0.60417 0.28887 0.72187 0.25335 1.5844-0.0789 1.9167-0.33229 0.33229-0.56864-0.25834-0.52522-1.3125zm-100.08-117.36c0-0.51754 0.44485-1.2159 0.98855-1.5519 0.56686-0.35034 0.7345 0.0511 0.39301 0.94098-0.66479 1.7324-1.3816 2.0494-1.3816 0.61096zm20-46c0-0.51754 0.44485-1.2159 0.98855-1.5519 0.56686-0.35034 0.7345 0.0511 0.39301 0.94098-0.66479 1.7324-1.3816 2.0494-1.3816 0.61096zm4-9c0-0.51754 0.44485-1.2159 0.98855-1.5519 0.56686-0.35034 0.7345 0.05106 0.39301 0.94098-0.66479 1.7324-1.3816 2.0494-1.3816 0.61096zm2-3.7699c0-0.57432 0.7875-1.6618 1.75-2.4167 1.6188-1.2695 1.64-1.2225 0.28297 0.62756-0.80687 1.1-1.5944 2.1875-1.75 2.4167-0.15563 0.22917-0.28297-0.05323-0.28297-0.62756zm6.5643-13.996c-0.54268-1.4252-0.42782-1.5401 0.5598-0.5598 0.68342 0.67833 0.99067 1.4852 0.68278 1.7931-0.30789 0.30789-0.86705-0.24711-1.2426-1.2333zm3.4712-9.583c-0.0195-0.43441 0.81631-2.4594 1.8573-4.5s1.9319-4.0524 1.9797-4.4706c0.12299-1.0756 3.1032-6.7395 3.5462-6.7395 0.20203 0 0.62428 0.6696 0.93833 1.488 0.32998 0.8599 0.0586 1.3875-0.64301 1.25-0.6677-0.1309-1.1015 0.3245-0.96401 1.012s-0.21583 1.25-0.78518 1.25c-0.70103 0-0.71239 0.60316-0.0352 1.8685 0.55 1.0277 0.72671 2.1418 0.39269 2.4758-0.33403 0.33402 0.0193 1.4057 0.78518 2.3815 1.2662 1.6133 1.2338 1.6497-0.3575 0.40172-1.6582-1.3005-2.2226-0.86944-1.797 1.3724 0.10441 0.55-0.38664 0.43316-1.0912-0.25965-1.0334-1.0161-1.5238-0.82268-2.536 1-0.6902 1.2428-1.2709 1.9042-1.2903 1.4698zm5.3998-7.6082c-0.62769-0.62769-2.4127 1.9121-2.3882 3.398 9e-3 0.55 0.67253 0.13285 1.4744-0.927 0.80183-1.0598 1.2131-2.1718 0.91382-2.471zm9.5848-6.6261c0.69572-0.83829 0.95135-1.8378 0.56807-2.221-0.38328-0.38328-1.1224-0.0349-1.6425 0.77417-0.83003 1.2912-1.0679 1.2877-1.9456-0.02896-0.88889-1.3333-1.1094-1.3333-1.9847 0-0.59425 0.90524-0.99076 1.0278-1 0.30902-8e-3 -0.65504 0.44203-1.4736 1.001-1.8191 0.55897-0.34546 0.7506-1.1595 0.42584-1.809-0.32475-0.6495 0.088-0.34834 0.91716 0.66924 1.3496 1.6562 4.2731 1.5045 3.262-0.16924-0.22624-0.3745 0.14219-1.1918 0.81873-1.8162 0.95845-0.88462 1.1791-0.33255 0.99938 2.5-0.32701 5.1529-0.32167 5.1353-1.5618 5.1353-0.7676 0-0.72255-0.48185 0.1425-1.5242zm-7.4558-3.769c0.37553-0.98622 0.93469-1.5412 1.2426-1.2333 0.30789 0.30789 6.4e-4 1.1148-0.68278 1.7931-0.98762 0.98027-1.1025 0.8654-0.5598-0.5598zm3.1811-3.9569c-0.25773-0.6875-0.12674-2.15 0.29109-3.25 0.59393-1.5636 0.74873-1.2909 0.70944 1.25-0.0543 3.5124-0.27109 3.9458-1.0005 2z" fill="#010101"/>
 </g>
</svg>
